<?xml version="1.0" encoding="utf-8"?>
<!-- Generator: Adobe Illustrator 24.2.0, SVG Export Plug-In . SVG Version: 6.00 Build 0)  -->
<svg version="1.1" id="Layer_1" xmlns="http://www.w3.org/2000/svg" xmlns:xlink="http://www.w3.org/1999/xlink" x="0px" y="0px"
	 viewBox="0 0 100 100" style="enable-background:new 0 0 100 100;" xml:space="preserve">
<style type="text/css">
	.st0{fill:none;}
	.st1{fill:#FEFEFE;}
	.st2{fill:#FEC652;}
	.st3{fill:#FDFDFB;}
</style>
<rect x="-4.8" y="-4.8" class="st0" width="109.6" height="109.6"/>
<path class="st1" d="M50.3,96.5c0.1,0,0.2,0,0.2-0.2c0.2-0.1,0.3,0,0.4,0.2c0.1,0.1,0.2,0.1,0.3,0.2c0.4,0,0.9-0.5,1.3,0.1
	c0.3-0.6,0.4-0.6,0.8-0.2c0,0,0.2,0.2,0.3,0.1c0.3-0.2,0.7-0.2,0.9-0.1c0.4,0.1,0.7-0.6,1.1-0.1c0.1-0.1,0.1-0.1,0.2-0.1
	c0.1,0,0.1-0.2,0.2-0.1c0.4,0.3,0.8,0.1,1.2,0.1c0.1,0,0.2,0.1,0.2,0c0.2-0.3,0.6-0.3,0.9-0.3c0.3,0,0.6,0,0.8-0.1
	c0.4-0.2,0.7-0.4,1.1-0.3c0.1,0,0.3,0.1,0.5,0c0.5-0.4,1.1-0.3,1.6-0.5c0.6-0.3,1.3-0.3,1.9-0.3c0.2,0,0.5,0.1,0.6-0.2
	c0-0.1,0.1-0.1,0.2-0.1c0.5,0.1,0.9-0.1,1.2-0.6l0,0c0.3,0.1,0.5,0.1,0.8,0c0.2-0.1,0.5-0.2,0.7-0.2c0.4,0,0.5-0.2,0.6-0.5
	c0-0.2,0.2-0.2,0.3-0.1c0.2,0.2,0.4,0,0.6-0.1c0.3-0.2,0.6-0.7,1.1-0.4c0.1,0.1,0.2-0.1,0.2-0.2C70.7,92.3,71,92,71,92
	c0.6,0.3,0.7-0.4,1.1-0.4c0.5-0.1,0.8-0.4,1.2-0.6c0.2-0.1,0.4-0.2,0.7-0.2c0.2,0,0.4-0.1,0.4-0.4l0,0c0.2-0.2,0.6-0.1,0.5-0.4
	c0,0,0,0,0-0.1c0.1-0.1,0.5,0.3,0.5-0.2c0.1-0.1,0.1-0.3,0.3-0.4c0.6-0.1,0.9-0.7,1.5-0.8c0,0,0-0.1,0.1-0.1
	c0.1-0.2,0.3-0.3,0.6-0.3c0.3,0,0.5-0.2,0.5-0.5c0-0.3,0.2-0.5,0.5-0.4c0.1,0,0.2,0,0.2-0.1c0.4-0.4,0.8-0.8,1.2-1.1
	c0.6-0.4,1.1-0.9,1.7-1.3c0.1-0.1,0.1-0.3,0.3-0.3c0.5-0.1,0.5-0.8,1.1-0.8c0.2-0.6,0.8-0.6,1.1-1.1c0.2-0.4,0.6-0.7,1.1-0.6
	c0.2,0,0.2-0.3,0.2-0.3c-0.3-0.8,0.3-1.2,0.6-1.7c0.2-0.3,0.4-0.6,0.7-0.9c0.2-0.3,0.3-0.7,0.7-0.9c0.1,0,0.2-0.2,0.1-0.3
	c0-0.2,0.1-0.4,0.3-0.5c0.1-0.1,0.2-0.2,0.2-0.3c0.1-0.5,0.4-0.8,0.7-1.1c0.1-0.1,0.2-0.2,0.2-0.4c0.2-0.6,0.4-1.3,0.6-1.9
	c0.2-0.4,0.4-0.8,0.6-1.2c0.7-1.3,1.4-2.6,2-3.9c0.7-1.4,1.3-2.8,1.7-4.3c0-0.1,0.1-0.1,0.1-0.2c0.2-0.2,0.3-0.4,0.3-0.7
	c0.1-0.3,0.1-0.6,0.3-0.9c0.3-0.8,0.4-1.6,0.7-2.3c0.4-1,0.4-2.1,0.7-3.1c0.3-1.1,0.4-2.2,0.5-3.4c0.1-1,0.3-2,0.4-3
	c0-0.5,0.1-1.1,0-1.6c-0.1-0.3,0.3-0.6,0.1-0.9c-0.3-0.6,0-1.3-0.1-2c-0.1-0.8-0.1-1.6-0.3-2.4c-0.1-0.6-0.3-1.3-0.4-1.9
	c0-0.8-0.1-1.5-0.3-2.2c-0.3-1.1-0.5-2.2-0.8-3.3c-0.2-0.9-0.6-1.8-0.8-2.6c-0.2-0.8-0.5-1.5-0.9-2.3c-0.3-0.6-0.3-1.2-0.7-1.8
	c-0.3-0.5-0.5-1-0.8-1.5c-0.2-0.3-0.4-0.6-0.5-1c-0.1-0.5-0.4-1-0.7-1.3c-0.3-0.3-0.4-0.7-0.7-1c-0.4-0.5-0.5-1.2-1.1-1.6
	c0,0-0.1-0.1-0.1-0.1c-0.1-0.6-0.7-1-1-1.5c-0.3-0.6-1-1-1.3-1.7c0,0-0.1-0.1-0.1-0.1c-0.5-0.5-1-1.1-1.5-1.6
	c-0.5-0.5-0.9-1-1.4-1.4c0.1-0.4-0.2-0.6-0.5-0.7c-0.2-0.3-0.5-0.5-0.9-0.7c-0.1,0-0.1-0.1-0.1-0.1c-0.1-0.4-0.4-0.5-0.7-0.7
	c-0.3-0.2-0.6-0.4-0.8-0.7c-0.1-0.1-0.2-0.3-0.3-0.4c-0.8-0.6-1.6-1.1-2.4-1.7c-0.4-0.3-0.8-0.5-1.2-0.8c-0.4-0.4-0.9-0.8-1.4-1
	c-0.6-0.3-1.1-0.9-1.9-1c0,0-0.1-0.1-0.1-0.1c-0.4-0.1-0.6-0.6-1-0.6c-0.3,0-0.5-0.1-0.7-0.2c-0.5-0.3-1-0.8-1.6-0.9
	c-0.5-0.1-0.9-0.6-1.4-0.6c0-0.2,0-0.3-0.2-0.3c-0.6,0-1.1-0.3-1.7-0.5c-0.5-0.2-1.1-0.2-1.5-0.6c-0.3-0.3-0.6-0.3-0.9-0.3
	c-0.7-0.2-1.5-0.4-2.2-0.6c-0.7-0.3-1.6-0.3-2.3-0.4c-0.1,0-0.2,0-0.2,0c-0.6-0.4-1.4-0.3-2-0.5c-0.5-0.2-1.1,0-1.6-0.2
	c-0.2-0.1-0.3-0.2-0.5-0.2c-1,0-1.9-0.2-2.9-0.2c-0.2,0-0.5,0-0.7-0.1c-1.8-0.3-3.5-0.1-5.3,0.1c-1.1,0.1-2.3,0.2-3.4,0.5
	c-0.6,0.1-1.3,0.1-2,0.4c-0.2,0.1-0.5,0.1-0.7,0.2c-0.4,0.1-0.9,0.1-1.3,0.3c-0.4,0.2-0.9,0.2-1.4,0.4c-0.4,0.2-0.9,0.3-1.3,0.3
	c-0.3,0-0.4,0.4-0.7,0.4c-0.9-0.1-1.6,0.6-2.4,0.7c-0.5,0-0.8,0.4-1.3,0.5C32,6.4,31.4,6.7,30.8,7c-0.7,0.4-1.5,0.5-2.2,1.1
	c-0.6,0.5-1.3,0.7-2,1.1c-0.7,0.5-1.4,0.9-2.1,1.4c-0.6,0.4-1.3,0.9-1.9,1.3c-0.8,0.5-1.6,1-2.3,1.6c-0.5,0.5-1.1,1-1.6,1.6
	c-0.6,0.9-1.5,1.5-2.2,2.4c-0.4,0.5-0.9,0.9-1.3,1.4c-0.6,0.7-1.4,1.4-1.8,2.3c-0.1,0.1-0.2,0.2-0.3,0.3c-0.6,0.5-1,1.1-1.3,1.7
	c-0.5,0.9-1.2,1.7-1.7,2.6c-0.4,0.9-1.1,1.6-1.4,2.5c-0.3,0.8-0.8,1.5-1.1,2.3c-0.4,1.1-0.9,2.3-1.3,3.4c-0.1,0.3-0.3,0.5-0.3,0.8
	c-0.2,0.7-0.3,1.4-0.6,2.1c-0.1,0.1-0.2,0.3-0.2,0.4c0,0.7-0.3,1.3-0.4,2c-0.1,0.8-0.4,1.5-0.5,2.2c0,0.4,0,0.9-0.1,1.2
	C4,43.8,4.3,44.7,4,45.6c-0.2,0.5,0,1.1-0.1,1.7c-0.1,0.9-0.1,1.9-0.1,2.9c0,0.3,0,0.7,0,1C3.9,51.5,4,51.8,3.9,52
	c0,1,0.1,2,0.3,2.9c0,0.4-0.1,0.7,0.1,1c0.2,0.5,0.1,1.1,0.2,1.6c0,0.1,0,0.3,0.1,0.4c0.3,0.6,0.3,1.2,0.4,1.8c0.3,1.3,0.6,2.7,1,4
	c0.3,1,0.7,2,1.2,3c0.3,0.7,0.7,1.4,0.9,2.1c0.1,0.3,0.3,0.6,0.4,1c0.1,0.5,0.3,1,0.7,1.3c0.3,0.3,0.6,0.5,0.5,1
	c0,0.1,0.1,0.2,0.2,0.2c0.2,0.1,0.3,0.2,0.3,0.4c0,0.3,0,0.5,0.3,0.6c0.4,0.2,0.8,0.4,0.7,1c0,0.1,0,0.1,0.1,0.2
	c0.4,0.2,0.5,0.7,0.8,0.9c0.1,0.1,0.1,0.2,0.1,0.4c0,0.2,0.1,0.3,0.2,0.4c0.1,0.3,0.3,0.4,0.6,0.6c0.3,0.2,0.6,0.4,0.5,0.9
	c0,0.1,0,0.1,0,0.2c0.3,0.5,0.6,1,1.1,1.4c0.3,0.2,0.5,0.4,0.7,0.8c0.3,0.5,0.7,1.1,1.2,1.5c0.6,0.4,1.1,0.9,1.5,1.4
	c0.2,0.3,0.4,0.3,0.6,0.3c0.1,0,0.1,0.1,0.1,0.2c0,0.4,0.2,0.5,0.6,0.6c0.2,0,0.3,0.1,0.3,0.3c0.1,0.3,0.4,0.6,0.7,0.7
	c0.3,0.1,0.5,0.2,0.5,0.5c0,0.2,0.1,0.2,0.2,0.2c0.1,0,0.3,0,0.4,0l0,0c0,0.2-0.3,0.4,0.2,0.4c0.2,0,0.4,0.2,0.4,0.4
	c0,0.2,0.1,0.3,0.3,0.3c0.1,0,0.2,0,0.3,0.1c0.3,0.4,0.7,0.6,1.2,0.8c0,0,0.1,0,0.1,0c-0.1,0.6,0.3,0.5,0.6,0.5c0.1,0,0.3,0,0.3,0.2
	c-0.1,0.4,0.2,0.3,0.4,0.3c0.2,0,0.3,0.1,0.5,0.3c-0.1,0.5-0.1,0.5,0.5,0.5c0.1,0,0.1,0,0.2,0c0.3,0,0.5,0,0.6,0.4
	c0,0.1,0.1,0.5,0.5,0.5c0.3,0.1,0.5,0.2,0.8,0.2c0.4,0,0.6,0.2,0.7,0.5c0.1,0.2,0.2,0.1,0.4,0.1c0.7,0,1,0.2,1.1,0.6
	c0.4-0.1,0.4-0.1,0.7,0.2c0,0,0.1,0,0.1,0c0.2-0.2,0.4,0,0.4,0.1c0.3,0.3,0.4,0.6,0.9,0.6c0.4,0,0.8,0.4,1.3,0.5
	c0,0.4,0.5,0.4,0.7,0.5c0.4,0.2,0.9,0.5,1.4,0.2c0.2-0.1,0.3,0,0.3,0.1c0.2,0.4,0.5,0.5,0.9,0.4c0.2-0.1,0.4-0.2,0.5,0.1
	c0.1,0.3,0.4,0.3,0.6,0.4c0.3,0.2,0.8,0.1,1.1,0.2c0.5,0.3,0.9,0.3,1.4,0.3c0.1,0.1,0.2,0.2,0.3,0.1c0.6-0.1,1.1,0.2,1.7,0.3
	c0.5,0.1,1,0.1,1.5,0.1c0,0.1-0.1,0.3,0.2,0.2c0.1,0,0.1,0,0.2,0c0.6,0.2,1.2,0,1.7,0.2c0.1,0,0.1-0.1,0.2-0.1
	c0.1-0.1,0.2-0.1,0.3,0c0.4,0.3,0.9,0.1,1.3,0.3c0.1,0.1,0.2,0,0.2-0.2l0,0c0.5,0.1,0.9-0.1,1.4,0l0,0c0,0.1,0,0.2,0.1,0.2
	C50,96.7,50.3,96.8,50.3,96.5L50.3,96.5z"/>
<path class="st2" d="M33,93.6c-0.5-0.1-0.9-0.5-1.3-0.5c-0.5,0-0.7-0.3-0.9-0.6c0,0-0.2-0.3-0.4-0.1c0,0-0.1,0-0.1,0
	c-0.4-0.3-0.4-0.3-0.7-0.2c-0.1-0.4-0.4-0.6-1.1-0.6c-0.1,0-0.3,0-0.4-0.1C28,91.2,27.8,91,27.4,91c-0.3,0-0.5-0.1-0.8-0.2
	c0.1-0.2,0.1-0.5-0.1-0.6c-0.5-0.4-1.1-0.5-1.6-0.8c-0.1-0.1-0.3-0.2-0.5-0.3c-0.2,0-0.5,0.1-0.4-0.3c0-0.1-0.2-0.2-0.3-0.2
	c-0.3,0-0.8,0.1-0.6-0.5c0,0-0.1,0-0.1,0c0-0.2,0-0.3-0.2-0.3c-0.6-0.2-1-0.7-1.4-1.1c-0.2-0.2-0.4-0.4-0.7-0.5c0,0,0,0,0,0
	c-0.1-0.3-0.4-0.5-0.7-0.7c-0.3-0.2-0.4-0.5-0.8-0.5c-0.1-0.5-0.6-0.6-0.9-0.8c-0.2-0.2-0.2-0.4-0.4-0.6c-0.4-0.4-0.9-0.8-1.3-1.1
	c-0.1-0.1-0.3-0.1-0.4-0.3c-0.1-0.3-0.3-0.4-0.6-0.6c-0.2-0.1-0.4-0.3-0.5-0.5c-0.1-0.4-0.6-0.6-0.7-1.1c0-0.1-0.1-0.1-0.2-0.1
	c-0.3-0.2-0.7-0.4-0.8-0.7c-0.2-0.4-0.4-0.6-0.7-0.8c0.2-0.5-0.2-0.7-0.5-0.9c-0.3-0.2-0.5-0.3-0.6-0.6c-0.1-0.1-0.2-0.2-0.2-0.4
	c0-0.1,0-0.3-0.1-0.4c-0.4-0.2-0.5-0.7-0.8-0.9c-0.1,0-0.1-0.1-0.1-0.2c0-0.6-0.3-0.8-0.7-1c-0.2-0.1-0.3-0.4-0.3-0.6
	c0-0.2,0-0.4-0.3-0.4c-0.1,0-0.2-0.2-0.2-0.2c0.1-0.5-0.3-0.7-0.5-1c-0.3-0.4-0.5-0.9-0.7-1.3c-0.1-0.4-0.3-0.7-0.4-1
	c-0.3-0.7-0.6-1.4-0.9-2.1c-0.4-1-0.8-2-1.2-3c-0.4-1.3-0.7-2.6-1-4c-0.1-0.6-0.1-1.2-0.4-1.8c-0.1-0.1-0.1-0.3-0.1-0.4
	c-0.1-0.5,0-1.1-0.2-1.6c-0.1-0.3,0-0.7-0.1-1c-0.1-1-0.3-1.9-0.3-2.9c0-0.3,0-0.6-0.1-0.9c-0.1-0.3,0-0.7,0-1c0-1,0-1.9,0.1-2.9
	c0.1-0.6-0.1-1.1,0.1-1.7c0.3-0.9,0-1.8,0.4-2.7c0.1-0.3,0.1-0.8,0.1-1.2c0.1-0.8,0.4-1.5,0.5-2.2c0.1-0.7,0.4-1.3,0.4-2
	c0-0.2,0.1-0.3,0.2-0.4c0.3-0.6,0.4-1.4,0.6-2.1c0.1-0.3,0.2-0.6,0.3-0.8c0.4-1.1,0.8-2.3,1.3-3.4c0.3-0.8,0.8-1.5,1.1-2.3
	c0.4-0.9,1-1.6,1.4-2.5c0.5-1,1.2-1.7,1.7-2.6c0.3-0.6,0.7-1.3,1.3-1.7c0.1-0.1,0.2-0.2,0.3-0.3c0.4-0.9,1.1-1.5,1.8-2.3
	c0.4-0.5,0.9-0.9,1.3-1.4c0.7-0.9,1.6-1.5,2.2-2.4c0.4-0.6,1-1.1,1.6-1.6c0.7-0.6,1.5-1.1,2.3-1.6c0.6-0.4,1.3-0.9,1.9-1.3
	c0.7-0.5,1.4-0.9,2.1-1.4c0.6-0.4,1.4-0.7,2-1.1c0.7-0.5,1.5-0.7,2.2-1.1c0.5-0.3,1.1-0.7,1.8-0.8c0.4-0.1,0.8-0.5,1.3-0.5
	c0.9-0.1,1.5-0.8,2.4-0.7c0.3,0,0.4-0.3,0.7-0.4c0.5-0.1,0.9-0.2,1.3-0.3c0.4-0.2,0.9-0.2,1.4-0.4c0.4-0.2,0.9-0.1,1.3-0.3
	C40.6,4,40.8,4,41.1,3.9c0.6-0.3,1.3-0.2,2-0.4c1.1-0.3,2.3-0.3,3.4-0.5c1.7-0.2,3.5-0.4,5.3-0.1C51.9,3,52.2,3,52.4,3
	c1,0,1.9,0.2,2.9,0.2c0.2,0,0.4,0.1,0.5,0.2c0.5,0.2,1.1,0,1.6,0.2c0.7,0.2,1.4,0.1,2,0.5c0.1,0,0.1,0,0.2,0
	c0.8,0.1,1.6,0.2,2.3,0.4c0.7,0.3,1.5,0.4,2.2,0.6c0.1,0.2,0.3,0.3,0.4,0.3c0.5,0.2,1,0.3,1.4,0.6c0.4,0.2,1,0.2,1.4,0.5
	c0.3,0.2,0.7,0.2,1,0.4c0.6,0,0.9,0.5,1.4,0.6c0.6,0.1,1,0.6,1.6,0.9c0.2,0.1,0.4,0.2,0.7,0.2c0.4,0,0.6,0.5,1,0.6
	c0,0,0.1,0.1,0.1,0.1c0.8,0.1,1.2,0.7,1.9,1c0.5,0.3,1,0.6,1.4,1c0.3,0.3,0.8,0.5,1.2,0.8c0.8,0.6,1.6,1.2,2.4,1.7
	c0.2,0.1,0.2,0.3,0.3,0.4c0.2,0.3,0.5,0.5,0.8,0.7c0.2,0.2,0.6,0.3,0.7,0.7c0,0.1,0.1,0.1,0.1,0.1c0.4,0.1,0.6,0.4,0.9,0.7
	c0.2,0.2,0.3,0.5,0.5,0.7c0.5,0.5,0.9,1,1.4,1.4c0.5,0.5,1,1.1,1.5,1.6c0,0,0.1,0.1,0.1,0.1c0.3,0.7,1,1.1,1.3,1.7
	c0.3,0.6,0.8,0.9,1,1.5c0,0,0,0.1,0.1,0.1c0.6,0.4,0.7,1.1,1.1,1.6c0.2,0.3,0.4,0.7,0.7,1c0.3,0.3,0.6,0.8,0.7,1.3
	c0.1,0.4,0.4,0.7,0.5,1c0.2,0.5,0.4,1.1,0.8,1.5c0.4,0.5,0.4,1.2,0.7,1.8c0.4,0.7,0.7,1.5,0.9,2.3c0.3,0.9,0.6,1.7,0.8,2.6
	c0.3,1.1,0.6,2.2,0.8,3.3c0.2,0.7,0.3,1.5,0.3,2.2c0,0.6,0.2,1.3,0.4,1.9c0.2,0.8,0.2,1.6,0.3,2.4c0.1,0.7-0.2,1.3,0.1,2
	c0.1,0.3-0.2,0.6-0.1,0.9c0.1,0.5,0,1.1,0,1.6c0,1-0.2,2-0.4,3c-0.1,1.1-0.3,2.3-0.5,3.4c-0.2,1-0.3,2.1-0.7,3.1
	c-0.3,0.8-0.4,1.6-0.7,2.3c-0.1,0.3-0.2,0.6-0.3,0.9c-0.1,0.3-0.1,0.5-0.3,0.7c-0.1,0-0.1,0.1-0.1,0.2c-0.4,1.5-1,2.9-1.7,4.3
	c-0.6,1.3-1.3,2.6-2,3.9c-0.2,0.4-0.5,0.8-0.6,1.2c-0.2,0.6-0.4,1.2-0.6,1.9c0,0.2-0.1,0.3-0.2,0.4c-0.3,0.3-0.6,0.6-0.7,1.1
	c0,0.1-0.1,0.2-0.2,0.3c-0.2,0.1-0.3,0.3-0.3,0.5c0,0.1,0,0.3-0.1,0.3c-0.4,0.1-0.5,0.6-0.7,0.9c-0.2,0.3-0.5,0.6-0.7,0.9
	c-0.3,0.5-1,0.9-0.6,1.7c0,0,0.1,0.3-0.2,0.3c-0.5-0.1-0.9,0.2-1.1,0.6c-0.3,0.5-0.9,0.5-1.1,1.1c-0.6,0-0.6,0.7-1.1,0.8
	c-0.2,0-0.2,0.2-0.3,0.3c-0.6,0.4-1,0.9-1.7,1.3c-0.4,0.3-0.9,0.7-1.2,1.1c-0.1,0.1-0.1,0.1-0.2,0.1c-0.3-0.1-0.5,0.1-0.5,0.4
	c0,0.3-0.2,0.4-0.5,0.5c-0.2,0-0.4,0.1-0.6,0.3c0,0,0,0.1-0.1,0.1c-0.6,0-0.9,0.7-1.5,0.8c-0.2,0-0.2,0.2-0.3,0.4
	c-0.2,0.1-0.5-0.2-0.5,0.2c0,0,0,0,0,0.1c-0.2,0.2-0.6,0.1-0.5,0.4c0,0,0,0,0,0c-0.6,0.2-1.3,0.3-1.9,0.7c-0.5,0.3-1,0.8-1.6,0.8
	c0,0-0.1,0-0.1,0.1c-0.2,0.3-0.4,0.3-0.7,0.4c-0.4,0.1-0.7,0.3-1,0.6c0,0.1-0.1,0.2-0.2,0.1c-0.4-0.4-0.6-0.1-0.8,0.2
	c-0.1,0.1-0.2,0.1-0.3,0.1c-0.6,0-1,0.4-1.4,0.7c0,0,0,0,0,0c-0.1,0-0.2,0-0.3,0.1c-0.2,0.1-0.3,0.3-0.6,0.1c-0.3-0.1-1,0.3-1.2,0.7
	c-0.7,0-1.3,0.1-1.9,0.3c-0.5,0.2-1.1,0.1-1.6,0.5c-0.2,0.1-0.4,0.1-0.5,0c-0.4-0.1-0.8,0.1-1.1,0.3c-0.2,0.1-0.6,0.1-0.8,0.1
	c-0.3,0-0.7-0.1-0.9,0.3c-0.1,0.1-0.2,0-0.2,0c-0.4-0.1-0.8,0.2-1.2-0.1c-0.1-0.1-0.1,0.1-0.2,0.1c-0.1,0-0.1,0.1-0.2,0.1
	c-0.4-0.5-0.7,0.3-1.1,0.1c-0.2-0.1-0.6-0.1-0.9,0.1c-0.1,0.1-0.2-0.1-0.3-0.1c-0.5-0.3-0.6-0.3-0.8,0.2c-0.4-0.5-0.8-0.1-1.3-0.1
	c-0.2,0-0.3,0-0.3-0.2c-0.1-0.2-0.2-0.3-0.4-0.2c-0.1,0-0.2,0-0.2,0.2c0,0,0,0,0,0c-0.2,0-0.3,0-0.5,0c0,0,0,0,0,0
	c0-0.1-0.1-0.2-0.2-0.2c-0.3,0-0.7,0-1,0c-0.1,0-0.2,0-0.2,0.2c0,0,0,0,0,0c-0.3-0.1-0.6-0.2-0.9-0.3c-0.4-0.1-0.8-0.2-1.2,0
	c0,0,0,0,0,0c-0.3-0.3-0.7-0.2-1.1,0c-0.1,0-0.2,0.1-0.3,0c-0.2-0.2-0.5-0.1-0.7-0.1c-0.5-0.1-1-0.1-1.5-0.1
	c-0.6-0.1-1.1-0.4-1.7-0.3c-0.1,0-0.2-0.1-0.3-0.1c-0.4-0.2-0.8-0.3-1.2-0.5c-0.6-0.2-1.2-0.3-1.7-0.7c-0.1-0.1-0.3-0.3-0.5,0
	c-0.1,0.1-0.2,0-0.3,0c-0.4-0.2-0.7-0.7-1.3-0.5c-0.1,0-0.2,0-0.2-0.1C34.2,93.7,33.6,93.8,33,93.6z M41.8,31.4
	c0.1,0.3-0.1,0.6-0.5,0.8c-0.9,0.4-1.8,0.7-2.6,1.2c-0.1,0.1-0.2,0-0.3-0.1c-0.1-0.3-0.2-0.5-0.3-0.8C38,32,38,31.5,37.8,31.1
	c-0.2-0.4-0.3-0.8-0.3-1.1c-0.1-0.5-0.2-1-0.1-1.6c0-0.1-0.1-0.2-0.1-0.3c-0.1-0.1-0.1-0.3-0.2-0.4c-0.3-0.6-0.3-1.4-1.2-1.5
	c-0.1,0-0.1-0.1-0.2-0.2c-0.1-0.3-0.3-0.3-0.5-0.3c-0.3,0-0.7,0.3-1,0.1c-0.4-0.3-0.8-0.2-1.1,0c-0.3,0.1-0.6,0.2-1,0.2
	c-0.5,0-0.9,0.3-1,0.8c0,0.1-0.1,0.2-0.1,0.4c0,0.2,0,0.3-0.3,0.4c-0.2,0.1-0.4,0.4-0.3,0.7c0.1,0.2,0,0.5,0,0.7
	c0,0.4,0.1,0.7,0.1,1.1c0.1,0.4,0.4,0.6,0.4,1c0,0.3,0,0.6,0.2,0.8c0.1,0.1,0.1,0.3,0.1,0.4c0,1.3,0.7,2.3,0.8,3.6
	c0,0.4,0,0.7-0.4,0.8c-0.1,0-0.2,0.1-0.3,0.1c-0.7,0.5-1.5,0.8-2.2,1.4c-0.2,0.2-0.5,0-0.7,0.2c-0.5,0.4-1.2,0.6-1.8,0.8
	c-0.5,0.2-1.3,0-1.4,0.9c0,0.1-0.1,0.1-0.2,0.1c-0.3,0.1-0.5,0.3-0.4,0.6c0,0.1-0.1,0.1-0.1,0.2c-0.2,0.6-0.6,1.1-0.9,1.6
	c-0.3,0.4,0,0.8,0.1,1.2c0,0.1,0.1,0.1,0.2,0.1c0.5,0,0.6,0.3,0.6,0.7c0.1,0.2,0.2,0.4,0.5,0.3c0.4-0.1,0.8-0.1,1.2,0.2
	c0.1,0.1,0.2,0.2,0.4,0.2c0.1,0,0.2,0.1,0.2,0.2c0.1,0.3,0.6,0.5,0.8,0.2c0.1-0.2,0.3-0.2,0.5-0.2c0.7-0.1,1.3-0.5,1.8-0.8
	c0.4-0.2,0.6-0.6,1.1-0.6c0.2,0,0.5-0.1,0.6-0.4c0-0.1,0.2-0.3,0.3-0.2c0.4,0.1,0.6-0.2,0.8-0.4c0.1-0.1,0.2-0.3,0.4-0.3
	c0.2,0,0.3-0.1,0.4-0.3c0.1-0.3,0.2-0.1,0.4-0.1c0.2,0,0.2,0.2,0.3,0.4c0.2,0.4,0.3,0.8,0.5,1.2c0.2,0.3,0.4,0.6,0.4,0.9
	c0,0.2,0,0.4,0.1,0.5c0.6,0.6,1,1.2,1.5,1.8c0.5,0.6,1.1,1.1,1.7,1.6c0.2,0.2,0.5,0.3,0.7,0.2c0.3-0.1,0.3-0.4,0.4-0.6
	c0.1-0.8,0.2-1.7,0.3-2.5c0.1-0.5,0.2-0.9,0.2-1.4c0-0.3,0.1-0.5,0-0.8c-0.1-0.2-0.1-0.5,0.1-0.7c0.1-0.1,0.1-0.2,0-0.3
	c-0.2-0.4-0.1-0.7-0.1-1.1c0-0.5-0.2-0.9-0.3-1.4c-0.1-0.2,0-0.3,0-0.5c0.2-0.5,0.6-0.8,1.1-1c0.5-0.2,1-0.5,1.5-0.6
	c0.4-0.1,0.7-0.4,1.1-0.6c0.3-0.1,0.4-0.2,0.5,0.2c0,0.1,0.1,0.2,0.1,0.3c0.3,0.4,0.5,0.8,0.7,1.2c0.4,0.8,0.8,1.7,1.2,2.5
	c0.2,0.4,0.4,0.3,0.6,0.2c0.4-0.2,0.7-0.5,0.8-0.9c0.2-0.8,0.3-1.6,0.6-2.4c0.4-1,0.5-2.1,0.8-3.1c0.1-0.4,0.4-0.6,0.7-0.6
	c0.6,0.1,0.9-0.5,1.4-0.4c0.5-0.5,1.3-0.2,1.9-0.5c0.2-0.1,0.5,0.1,0.7-0.1c0.1-0.1,0.2,0,0.3,0.1c0.1,0.2,0,1.1-0.2,1.2
	c-0.2,0.2-0.3,0.4-0.4,0.6c-0.1,0.3,0,0.6-0.2,0.9c-0.5,1-1.2,1.8-1.8,2.7c-0.4,0.5-0.8,1-1,1.6c-0.2,0.5-0.6,0.8-0.7,1.2
	c-0.3,0.6-0.7,1.1-1,1.7c-0.3,0.5-0.7,1.1-1,1.6c-0.3,0.5-0.6,1-0.9,1.5c-0.3,0.5-0.4,1.2-1,1.6c-0.1,0-0.1,0.1-0.1,0.2
	c-0.3,0.5-0.3,1-0.7,1.5c-0.5,0.6-0.5,1.3-0.8,2c-0.4,0.9-0.9,1.7-1.3,2.6c-0.3,0.6-0.8,1.1-0.8,1.8c0,0.1-0.1,0.2-0.2,0.3
	c-0.6,0.5-0.8,1.1-1.1,1.7c0,0.1-0.1,0.2,0,0.2c0.3,0.4,0,0.6-0.2,0.9c-0.1,0.2-0.3,0.4-0.3,0.6c-0.1,0.7-0.2,1.4-0.6,2
	c-0.2,0.4-0.1,0.9-0.3,1.3c-0.1,0.2-0.3,0.4-0.3,0.6c-0.1,1-0.3,2-0.1,2.9c0,0.3,0.1,0.5,0.1,0.8c0.1,0.6,0.1,1.3,0.7,1.8
	c0.1,0,0.1,0.1,0.1,0.2c0.2,0.6,0.6,1,0.9,1.5c0.1,0.1,0.2,0.1,0.3,0.1c0.5-0.1,0.8,0.2,1.1,0.6c0.1,0.1,0.1,0.2,0.2,0.2
	c0.6,0.1,1.1,0.5,1.7,0.6c0.7,0.2,1.5,0.7,2.3,0.6c0.5-0.1,0.9,0.3,1.3,0.2c0,0,0.1,0,0.1,0.1c0.1,0.2,0.3,0.1,0.5,0.1
	c0.4-0.1,0.7-0.3,1-0.2c0.3,0.1,0.7-0.2,1-0.1c0.1,0,0.2-0.2,0.3-0.3c0.1-0.4,0.2-0.4,0.6-0.2c0.2,0.2,0.3,0.2,0.5,0
	c0.4-0.4,0.9-0.4,1.4-0.6c0.5-0.1,1-0.2,1.4-0.5c0.7-0.6,1.6-0.8,2.4-1.1c0.2-0.1,0.4,0.2,0.6,0c0.2-0.2,0.4-0.2,0.5-0.3
	c0.5-0.3,0.9-0.7,1.5-0.5c0.2-0.4,0.5-0.6,1-0.5c0,0,0.1-0.1,0.1-0.1c0.1-0.2,0.1-0.5,0.5-0.2c0.1,0.1,0.2-0.1,0.3-0.2
	c0.3-0.3,0.6-0.6,0.9-0.8c0.5-0.5,1.4-0.1,1.7-0.9c0,0,0.1,0,0.2,0c0.4,0,0.6-0.2,0.8-0.4c0.5-0.4,0.7-1.2,1.5-1.2
	c0.1,0,0.2-0.1,0.2-0.2c0-0.1,0-0.2,0.1-0.2c0.5,0,0.7-0.5,1.1-0.7c1.1-0.4,1.8-1.5,2.9-1.7c0,0,0.1-0.1,0.1-0.1
	c0.3-0.3,0.6-0.5,1-0.7c0.2-0.1,0.3-0.2,0.3-0.4c0-0.4,0.2-0.4,0.5-0.4c0.1,0,0.2,0.1,0.2-0.1c0-0.4,0.3-0.4,0.5-0.6
	c0.2-0.1,0.4-0.3,0.6-0.6c0.1-0.3,0.3-0.6,0.5-0.7c0.4-0.2,0.7-0.5,1.1-0.6c0.2-0.1,0.5-0.3,0.7-0.5c0.2-0.3,0.5-0.6,0.7-0.7
	c0.3-0.1,0.5-0.4,0.7-0.6c0.1-0.1,0.2-0.2,0.4-0.2c0.4-0.2,1-0.1,1.2-0.8c0-0.1,0.1-0.1,0.2-0.1c0.6,0,0.9-0.4,1.3-0.8
	c0.4-0.4,1-0.7,1.5-1c0.9-0.5,1.7-1.1,2.7-1.4c0.6-0.2,0.9-0.9,1.5-1.2c0.2-0.1,0.4-0.4,0.6-0.6c0.2-0.2,0.1-0.5,0-0.7
	c-0.1-0.2-0.2-0.2-0.4-0.1c-0.5,0.3-1.1,0.2-1.7,0.1c-0.7-0.1-1.2,0.2-1.8,0.4c-0.5,0.1-0.9,0.3-1.5,0.3c-1.2,0-2.3,0-3.5,0.2
	c-0.1,0-0.2,0.1-0.3,0.2c-0.1,0.2-0.3,0.2-0.5,0.2c-0.2,0-0.3,0-0.4,0.2c-0.1,0.2-0.3,0.3-0.5,0.3c-0.9,0.2-1.6,0.8-2.5,1.1
	c-0.5,0.2-1.1,0.3-1.5,0.6c-0.3,0.2-0.5,0.3-0.7,0.6c-0.1,0.2-0.1,0.3-0.3,0.4c-0.5,0.2-1,0.5-1.4,0.8c-0.9,0.7-2,1.4-3,2
	c-0.3,0.2-0.5,0.4-0.8,0.5c-0.9,0.4-1.8,0.8-2.5,1.4c-0.8,0.6-1.7,1.1-2.5,1.7c-0.5,0.4-1.1,0.7-1.6,1.2c-0.2,0.2-0.5,0.3-0.8,0.6
	c-0.2,0.2-0.6,0.2-0.9,0.4c-0.3,0.2-0.7,0.4-1,0.6c-1,0.6-2.1,0.9-3.1,1.4c-0.6,0.3-1.1,0.4-1.7,0.7c-0.8,0.3-1.7,0.5-2.5,0.7
	c-0.5,0.1-1,0.3-1.5,0.2c-0.6,0-1.1-0.1-1.7,0.1c0,0-0.1,0-0.1,0c-0.3-0.3-0.7-0.2-1-0.2c-0.3,0-0.4-0.1-0.4-0.4
	c0.1-0.6,0.1-1.2,0.1-1.7c0-1.1,0.5-2,0.4-3.1c0-0.1,0-0.2,0.1-0.3c0.2-0.5,0.6-0.9,0.7-1.5c0.1-0.4,0.1-0.9,0.4-1.3
	c0.2-0.2,0.1-0.6,0.6-0.6c0.1,0,0.1-0.1,0.1-0.2c0.2-0.6,0.5-1.1,0.8-1.6c0.3-0.3,0.3-0.8,0.5-1.1c0.1-0.2,0.4-0.5,0.4-0.7
	c-0.1-0.7,0.8-0.8,0.7-1.5c0.4-0.1,0.2-0.6,0.4-0.8c0.4-0.4,0.7-0.9,0.8-1.4c0.1-0.4,0.3-0.6,0.5-0.9c0.1-0.1,0.2-0.3,0.2-0.4
	c-0.1-0.5,0.3-0.8,0.5-1.1c0.5-0.7,0.7-1.5,1.2-2.2c0.1-0.1,0.2-0.2,0.1-0.4c-0.1-0.2,0-0.4,0.3-0.4c0.2,0,0.3-0.2,0.3-0.4
	c0-0.2,0.1-0.3,0.2-0.5c0.1-0.1,0.3-0.3,0.3-0.4c0.2-0.5,0.5-0.9,0.8-1.3c0.3-0.4,0.3-0.8,0.7-1.2c0.5-0.4,0.6-1.1,1-1.6
	c0.1-0.2,0.2-0.3,0.2-0.6c0-0.3,0.1-0.6,0.3-0.8c0.3-0.3,0.7-0.6,0.7-1c0.1-1,0.7-1.7,1.2-2.5c0.4-0.8,0.6-1.7,0.8-2.6
	c0-0.1,0-0.3,0-0.4c0-0.1-0.1-0.2-0.1-0.3c0.3-0.5-0.1-1,0-1.4c0-0.4-0.2-0.6-0.6-0.7c-0.2-0.1-0.6-0.1-0.6-0.5
	c0-0.4-0.2-0.5-0.5-0.6c-0.5-0.3-1-0.6-1.6-0.7c-0.9-0.1-1.8-0.1-2.6,0.1c-0.4,0.1-0.7,0.2-1.1,0.2c-1,0.1-2,0.3-2.9,0.6
	c-0.4,0.1-0.8,0.1-1.1,0.4c-0.3,0.2-0.7,0.3-1,0.3c-0.2,0-0.3-0.1-0.3-0.3c0-0.1,0.1-0.3-0.1-0.5c-0.4-0.5-0.1-1.2-0.6-1.7
	c0,0,0-0.2,0-0.2c0.1-0.2,0-0.4-0.1-0.5c-0.3-0.4-0.3-0.9-0.5-1.4c-0.2-0.7-0.5-1.4-0.9-2c-0.4-0.7-1.1-1-1.8-1.2
	c-0.2-0.1-0.4-0.1-0.6,0.1c-0.3,0.2-0.7,0.3-1.1,0.3c-0.4,0-0.8,0.2-1.2,0.4c-0.4,0.3-0.5,0.7-0.6,1c-0.2,0.5-0.3,1-0.3,1.6
	c0.1,0.9,0.1,1.8,0.4,2.6c0.2,0.6,0.2,1.2,0.5,1.7C41.5,29.9,41.8,30.5,41.8,31.4z"/>
<path class="st3" d="M13.4,77.9c0.3,0.2,0.6,0.4,0.7,0.8c0.1,0.3,0.5,0.5,0.8,0.7c0.1,0.1,0.2,0.1,0.2,0.1c0.1,0.5,0.5,0.7,0.7,1.1
	c0.1,0.2,0.3,0.4,0.5,0.5c0.3,0.1,0.5,0.3,0.6,0.6c0.1,0.2,0.3,0.2,0.4,0.3c0.5,0.4,0.9,0.7,1.3,1.1c0.2,0.2,0.2,0.4,0.4,0.6
	c0.3,0.2,0.8,0.4,0.9,0.8c0.4,0,0.5,0.4,0.8,0.5c0.3,0.2,0.6,0.4,0.7,0.7c-0.1,0-0.3,0-0.4,0c-0.1,0-0.3,0-0.2-0.2
	c0-0.4-0.2-0.4-0.5-0.5c-0.4-0.1-0.6-0.3-0.7-0.7c-0.1-0.2-0.2-0.3-0.3-0.3c-0.3-0.1-0.6-0.2-0.6-0.6c0-0.1,0-0.2-0.1-0.2
	c-0.2-0.1-0.4-0.1-0.6-0.3c-0.4-0.5-1-1-1.5-1.4c-0.6-0.4-1-0.9-1.2-1.5c-0.2-0.4-0.4-0.5-0.7-0.8c-0.4-0.4-0.7-0.9-1.1-1.4
	C13.4,78,13.4,77.9,13.4,77.9z"/>
<path class="st3" d="M66.4,93.9c0.4-0.3,0.8-0.7,1.4-0.7c0.1,0,0.3,0,0.3-0.1c0.2-0.2,0.5-0.5,0.8-0.2c0,0,0.1-0.1,0.2-0.1
	c0.3-0.3,0.6-0.5,1-0.6c0.3-0.1,0.5-0.1,0.7-0.4c0,0,0.1-0.1,0.1-0.1c0.7,0,1.2-0.4,1.6-0.8c0.6-0.4,1.3-0.4,1.9-0.7
	c0,0.3-0.2,0.4-0.4,0.4c-0.3,0-0.4,0.1-0.7,0.2c-0.4,0.2-0.7,0.6-1.2,0.6c-0.4,0.1-0.6,0.7-1.1,0.4c0,0-0.3,0.2-0.4,0.4
	c0,0.1-0.1,0.2-0.2,0.2c-0.5-0.3-0.8,0.2-1.1,0.4c-0.2,0.1-0.4,0.2-0.6,0.1c-0.1-0.1-0.3-0.1-0.3,0.1c0,0.3-0.2,0.5-0.6,0.5
	c-0.2,0-0.5,0.1-0.7,0.2C67,94,66.7,94,66.4,93.9z"/>
<path class="st3" d="M33.7,93.2c0.5,0.1,1.1,0.1,1.6,0.4c0.1,0,0.2,0.1,0.2,0.1c0.6-0.2,0.9,0.3,1.3,0.5c0.1,0.1,0.2,0.1,0.3,0
	c0.2-0.2,0.4-0.1,0.5,0c0.5,0.4,1.2,0.5,1.7,0.7c0.4,0.2,0.8,0.3,1.2,0.5c-0.5,0-0.9,0-1.4-0.3c-0.3-0.2-0.7-0.1-1.1-0.2
	c-0.2-0.1-0.5-0.1-0.6-0.4c-0.1-0.2-0.3-0.1-0.5-0.1c-0.4,0.2-0.7,0.1-0.9-0.4c-0.1-0.2-0.2-0.2-0.3-0.1c-0.5,0.3-1,0-1.4-0.2
	C34.2,93.6,33.7,93.6,33.7,93.2z M36.8,94.2C36.8,94.2,36.7,94.2,36.8,94.2C36.7,94.2,36.7,94.2,36.8,94.2
	C36.7,94.2,36.7,94.2,36.8,94.2C36.7,94.2,36.8,94.2,36.8,94.2z"/>
<path class="st3" d="M44.2,96c0.3,0,0.5-0.1,0.7,0.1c0.1,0.1,0.2,0,0.3,0c0.4-0.2,0.7-0.3,1.1,0c0,0,0,0,0,0c0.4-0.2,0.8-0.1,1.2,0
	c0.3,0.1,0.6,0.2,0.9,0.3c0,0.2-0.1,0.2-0.2,0.2c-0.4-0.2-0.9,0-1.3-0.3c-0.1-0.1-0.2,0-0.3,0c-0.1,0-0.1,0.1-0.2,0.1
	c-0.5-0.2-1.1-0.1-1.7-0.2c-0.1,0-0.2,0-0.2,0C44.1,96.4,44.2,96.1,44.2,96z"/>
<path class="st3" d="M69.2,6.4c-0.3-0.1-0.7-0.1-1-0.4c-0.4-0.3-0.9-0.3-1.4-0.5c-0.4-0.2-1-0.4-1.4-0.6c-0.2-0.1-0.3-0.1-0.4-0.3
	c0.3,0,0.6,0,0.9,0.3c0.4,0.4,1,0.4,1.5,0.6c0.5,0.2,1,0.6,1.7,0.5C69.2,6.1,69.2,6.3,69.2,6.4z"/>
<path class="st3" d="M21.5,85.8c0.3,0.1,0.5,0.3,0.7,0.5c0.4,0.4,0.8,0.9,1.4,1.1c0.2,0.1,0.2,0.2,0.2,0.3c-0.5-0.1-0.9-0.3-1.2-0.8
	c-0.1-0.1-0.2-0.1-0.3-0.1c-0.2,0-0.3-0.1-0.3-0.3c0-0.2-0.1-0.4-0.4-0.4C21.2,86.2,21.4,86,21.5,85.8z"/>
<path class="st3" d="M25.7,89c0.5,0.2,1.2,0.4,1.6,0.8c0.1,0.1,0.1,0.4,0.1,0.6c-0.3,0-0.5-0.4-0.5-0.5c0-0.4-0.3-0.4-0.6-0.4
	c-0.1,0-0.1,0-0.2,0C25.6,89.5,25.6,89.5,25.7,89z"/>
<path class="st3" d="M64.4,94.7c0.1-0.4,0.8-0.8,1.2-0.7c0.3,0.1,0.4,0,0.6-0.1c0.1-0.1,0.2-0.1,0.3-0.1c-0.3,0.5-0.6,0.7-1.2,0.6
	c-0.1,0-0.2,0-0.2,0.1C64.9,94.8,64.6,94.8,64.4,94.7z"/>
<path class="st3" d="M48.4,96.5c0-0.1,0.1-0.2,0.2-0.2c0.3,0,0.7,0,1,0c0.1,0,0.2,0.1,0.2,0.2C49.3,96.5,48.9,96.6,48.4,96.5z"/>
<path class="st3" d="M84.1,16.7c-0.3-0.2-0.3-0.5-0.5-0.7C83.9,16.1,84.2,16.3,84.1,16.7z"/>
<path class="st3" d="M74.5,90.4c0-0.4,0.4-0.3,0.5-0.4C75,90.3,74.6,90.2,74.5,90.4z"/>
<path class="st3" d="M75,89.9c0.1-0.4,0.4-0.1,0.5-0.2C75.5,90.2,75.1,89.7,75,89.9z"/>
<path class="st3" d="M49.8,96.5c0.2,0,0.3,0,0.5,0c-0.1,0.3-0.3,0.2-0.5,0.2C49.8,96.7,49.8,96.6,49.8,96.5z"/>
<path class="st3" d="M50.3,96.5c0-0.1,0.1-0.2,0.2-0.2C50.5,96.5,50.4,96.5,50.3,96.5z"/>
<path class="st3" d="M49.2,44.1c-0.3,0.1-0.3,0.3-0.3,0.6c0,0.1,0.1,0.1,0.2,0.1C49.3,44.5,49.3,44.3,49.2,44.1z"/>
<path class="st2" d="M36.8,94.2C36.8,94.2,36.7,94.2,36.8,94.2C36.7,94.2,36.7,94.2,36.8,94.2C36.7,94.2,36.7,94.2,36.8,94.2
	C36.7,94.2,36.8,94.2,36.8,94.2z"/>
<path class="st1" d="M49.2,44.1c0.1,0.2,0.1,0.5-0.1,0.6c-0.1,0-0.1,0-0.2-0.1C48.9,44.4,49,44.2,49.2,44.1z"/>
</svg>
